<?xml version="1.0" encoding="UTF-8"?><svg id="Layer_1" xmlns="http://www.w3.org/2000/svg" width="50" height="50" viewBox="0 0 50 50"><path d="M44.58,8.02h-3.55l-6.94,14.04-7.42-14.06H8.64c.64-1.07-3.41,5.19-3.41,5.19v4.97l3.78,5.46h7.62l1.65,2.39-1.12,2.22h-8.86l-2.84,5.87h12.87l3.98-5.87v-4.88l-3.89-5.62h-7.74l-1.6-2.32,1.53-2.22h12.9v20.9h4.37v-13.72l6.25,11.65,6.48-13.06.07,15.13h4.09l-.19-26.07Z" fill="#d4af37"/><path d="M11.42,37.53l-1.41,4.54h-.46l-1.22-3.87-1.23,3.87h-.46l-1.41-4.54h.45l1.2,3.91,1.25-3.91h.41l1.23,3.92,1.22-3.92h.42Z" fill="#b9bbc1" stroke="#b9bbc1" stroke-miterlimit="10" stroke-width=".25"/><path d="M15.31,41.66v.41h-2.96v-4.54h2.87v.42h-2.42v1.61h2.16v.41h-2.16v1.69h2.51Z" fill="#b9bbc1" stroke="#b9bbc1" stroke-miterlimit="10" stroke-width=".25"/><path d="M18.87,39.73c.27.07.49.2.63.39.15.19.23.44.23.74,0,.39-.13.69-.4.9-.26.21-.65.31-1.17.31h-1.92v-4.54h1.8c.46,0,.82.1,1.08.3.26.2.38.49.38.86,0,.25-.06.47-.17.64-.11.17-.27.3-.47.39ZM16.68,37.93v1.64h1.33c.34,0,.6-.07.78-.21.18-.14.28-.35.28-.61s-.09-.47-.28-.61c-.18-.14-.44-.21-.78-.21h-1.33ZM18.15,41.68c.37,0,.66-.07.85-.2.19-.14.29-.35.29-.65,0-.57-.38-.85-1.14-.85h-1.47v1.7h1.47Z" fill="#b9bbc1" stroke="#b9bbc1" stroke-miterlimit="10" stroke-width=".25"/><path d="M23.46,42.11c-.31,0-.61-.05-.89-.16-.28-.11-.5-.25-.66-.43l.17-.37c.15.17.35.3.6.4.25.1.51.15.77.15.37,0,.65-.07.84-.22.19-.15.28-.34.28-.58,0-.18-.05-.33-.15-.43-.1-.11-.23-.19-.37-.25-.15-.06-.35-.12-.61-.19-.32-.09-.57-.17-.75-.25-.19-.08-.35-.2-.48-.36-.13-.17-.2-.39-.2-.67,0-.23.06-.44.17-.63.11-.19.29-.34.52-.45.23-.11.52-.17.86-.17.24,0,.47.04.7.11s.43.17.59.3l-.15.38c-.18-.13-.36-.22-.56-.28-.2-.06-.39-.1-.58-.1-.37,0-.64.08-.83.23-.18.15-.28.35-.28.59,0,.18.05.33.15.44.1.11.23.19.38.25.15.06.36.12.62.19.3.08.55.16.74.24.19.08.35.2.48.36.13.16.2.38.2.66,0,.23-.06.44-.17.63-.11.19-.29.34-.52.45-.23.11-.52.16-.86.16Z" fill="#b9bbc1" stroke="#b9bbc1" stroke-miterlimit="10" stroke-width=".25"/><path d="M27.32,37.95h-1.47v-.42h3.38v.42h-1.47v4.12h-.44v-4.12Z" fill="#b9bbc1" stroke="#b9bbc1" stroke-miterlimit="10" stroke-width=".25"/><path d="M31.65,42.09c-.54,0-.96-.17-1.27-.51-.3-.34-.45-.83-.45-1.47v-2.6h.44v2.58c0,.53.11.92.33,1.18.22.26.53.39.95.39s.74-.13.96-.39c.22-.26.33-.65.33-1.18v-2.58h.43v2.6c0,.64-.15,1.13-.45,1.47-.3.34-.72.51-1.26.51Z" fill="#b9bbc1" stroke="#b9bbc1" stroke-miterlimit="10" stroke-width=".25"/><path d="M34.33,37.53h1.7c.44,0,.83.1,1.17.29.34.19.6.46.79.81.19.34.28.73.28,1.18s-.09.83-.28,1.18c-.19.34-.45.61-.79.8-.34.19-.73.29-1.17.29h-1.7v-4.54ZM36.01,41.66c.36,0,.68-.08.96-.24.27-.16.49-.38.64-.66.15-.28.23-.6.23-.96s-.08-.68-.23-.96c-.15-.28-.36-.5-.64-.65-.28-.16-.6-.24-.96-.24h-1.24v3.71h1.24Z" fill="#b9bbc1" stroke="#b9bbc1" stroke-miterlimit="10" stroke-width=".25"/><path d="M39.1,37.53h.44v4.54h-.44v-4.54Z" fill="#b9bbc1" stroke="#b9bbc1" stroke-miterlimit="10" stroke-width=".25"/><path d="M42.58,42.11c-.41,0-.79-.1-1.13-.3-.33-.2-.6-.48-.79-.83-.19-.35-.28-.74-.28-1.18s.09-.83.28-1.18c.19-.35.45-.63.79-.83.34-.2.71-.3,1.13-.3s.79.1,1.12.3c.33.2.59.47.79.83s.29.75.29,1.18-.1.83-.29,1.18-.45.63-.79.83c-.33.2-.7.3-1.12.3ZM42.58,41.68c.33,0,.63-.08.89-.24.27-.16.48-.39.63-.67.15-.29.23-.61.23-.97s-.08-.68-.23-.96c-.15-.29-.36-.51-.63-.67-.27-.16-.56-.24-.89-.24s-.63.08-.9.24c-.27.16-.48.39-.63.67-.15.29-.23.61-.23.96s.08.68.23.97c.15.29.37.51.63.67.27.16.57.24.9.24Z" fill="#b9bbc1" stroke="#b9bbc1" stroke-miterlimit="10" stroke-width=".25"/></svg>